<?xml version="1.0" encoding="UTF-8" standalone="no"?>
<svg
   width="51.317001"
   height="43.779999"
   version="1.1"
   id="svg34"
   xmlns:xlink="http://www.w3.org/1999/xlink"
   xmlns="http://www.w3.org/2000/svg"
   svg="http://www.w3.org/2000/svg">
  <defs
     id="defs5">
    <path
       id="a"
       d="M 0,0 H 15.027 V 24 H 0 Z" />
    <path
       id="c"
       d="M 0,0.016 H 27 V 33 H 0 Z" />
    <path
       id="e"
       d="M 0,0 H 27 V 33.797 H 0 Z" />
  </defs>
  <g
     fill="none"
     fill-rule="evenodd"
     id="g32"
     transform="translate(0.012,-0.016)">
    <g
       transform="translate(25)"
       id="g21">
      <mask
         id="d"
         fill="#ffffff">
        <use
           xlink:href="#c"
           id="use16"
           x="0"
           y="0"
           width="100%"
           height="100%" />
      </mask>
      <path
         d="M 14.012,0.016 2.594,31.386 a 2.19,2.19 0 0 1 -1.836,1.427 v 0.015 h 12.07 c 0.945,0 1.754,-0.601 2.055,-1.441 L 26.305,0.016 Z"
         fill="#35548B"
         fill-rule="nonzero"
         mask="url(#d)"
         id="path19" />
    </g>
    <path
       d="m 24.773,32.352 c 0.7,0 1.313,-0.348 1.688,-0.875 0.039,-0.055 0.176,-0.247 0.273,-0.508 l 4.188,-11.512 -2.45,-6.723 a 2.07,2.07 0 0 0 -3.597,-0.398 c -0.04,0.055 -0.203,0.3 -0.273,0.508 l -4.188,11.508 2.461,6.75 a 2.067,2.067 0 0 0 1.898,1.25"
       fill="#35548B"
       fill-rule="nonzero"
       id="path23" />
    <g
       transform="translate(-1,10)"
       id="g30">
      <mask
         id="f"
         fill="#ffffff">
        <use
           xlink:href="#e"
           id="use25"
           x="0"
           y="0"
           width="100%"
           height="100%" />
      </mask>
      <path
         d="M 26.668,0.984 H 14.465 c -0.945,0 -1.754,0.598 -2.059,1.442 L 0.988,33.796 H 13.281 L 24.7,2.427 a 2.187,2.187 0 0 1 1.968,-1.439 z"
         fill="#35548B"
         fill-rule="nonzero"
         mask="url(#f)"
         id="path28" />
    </g>
  </g>
</svg>
